<svg id="svg" version="1.1" xmlns="http://www.w3.org/2000/svg" xmlns:xlink="http://www.w3.org/1999/xlink" width="400" height="400" viewBox="0, 0, 400,400"><g id="svgg"><path id="path0" d="M191.088 23.102 C 190.999 23.187,189.259 23.367,187.222 23.501 C 185.185 23.636,182.435 23.895,181.111 24.077 C 179.787 24.258,177.870 24.513,176.852 24.642 C 175.833 24.772,174.289 25.031,173.419 25.220 C 172.550 25.408,171.216 25.663,170.456 25.786 C 169.696 25.909,168.907 26.044,168.704 26.086 C 158.368 28.203,144.495 32.235,138.770 34.784 C 137.919 35.163,136.556 35.725,135.741 36.031 C 133.261 36.965,130.108 38.428,123.519 41.702 C 103.026 51.883,84.251 66.351,69.253 83.518 C 67.118 85.963,65.170 88.176,64.924 88.435 C 56.671 97.179,43.565 119.440,36.963 135.926 C 27.142 160.452,22.174 194.112,24.994 217.037 C 25.106 217.954,25.459 221.037,25.777 223.889 C 31.810 277.983,66.751 331.072,113.333 356.921 C 114.454 357.542,116.620 358.767,118.148 359.641 C 138.136 371.085,168.239 379.770,191.852 380.907 C 194.398 381.030,198.065 381.214,200.000 381.316 C 203.237 381.486,216.532 380.988,220.914 380.531 C 226.621 379.937,235.393 378.533,242.751 377.036 C 277.515 369.963,314.189 348.177,338.455 320.185 C 340.220 318.148,341.760 316.398,341.876 316.296 C 342.938 315.362,349.917 305.787,353.890 299.815 C 379.827 260.822,389.164 209.297,378.654 163.148 C 378.144 160.907,377.648 158.657,377.553 158.148 C 377.128 155.883,373.493 144.212,371.958 140.185 C 369.054 132.566,368.377 130.863,367.764 129.630 C 367.410 128.917,365.767 125.583,364.112 122.222 C 362.457 118.861,360.813 115.611,360.458 115.000 C 360.104 114.389,359.252 112.889,358.565 111.667 C 345.039 87.585,318.210 60.529,295.370 47.935 C 294.352 47.374,293.019 46.617,292.407 46.254 C 290.106 44.887,282.328 40.771,280.370 39.884 C 275.572 37.710,270.834 35.649,269.630 35.211 C 267.996 34.618,267.140 34.286,265.741 33.705 C 262.936 32.540,252.964 29.425,249.724 28.702 C 249.367 28.622,248.074 28.307,246.852 28.001 C 241.379 26.632,238.147 25.919,235.741 25.551 C 234.315 25.332,232.731 25.073,232.222 24.974 C 230.651 24.668,227.253 24.212,223.889 23.855 C 222.870 23.747,221.620 23.564,221.111 23.449 C 220.030 23.205,191.328 22.873,191.088 23.102 M217.407 31.488 C 224.750 32.070,230.594 32.867,236.852 34.139 C 239.907 34.761,242.824 35.352,243.333 35.453 C 273.584 41.468,310.520 63.787,332.419 89.283 C 334.245 91.409,335.831 93.231,335.944 93.333 C 336.058 93.435,336.641 94.185,337.242 95.000 C 337.842 95.815,338.500 96.663,338.704 96.886 C 339.935 98.230,345.503 106.095,348.119 110.185 C 355.110 121.117,362.404 136.562,366.221 148.519 C 368.481 155.594,368.905 157.082,370.147 162.288 C 374.065 178.700,375.855 202.472,374.254 216.852 C 365.752 293.254,315.498 351.207,242.593 368.686 C 237.286 369.958,231.363 370.979,222.963 372.070 C 212.688 373.405,193.968 373.386,183.889 372.031 C 177.478 371.169,174.851 370.775,174.074 370.561 C 173.769 370.477,172.769 370.295,171.852 370.157 C 162.307 368.724,143.679 362.937,134.074 358.422 C 128.044 355.587,120.159 351.530,116.296 349.276 C 112.043 346.794,103.697 341.079,98.950 337.397 C 74.963 318.794,54.630 291.800,44.556 265.185 C 44.055 263.861,43.415 262.278,43.133 261.667 C 42.090 259.405,37.601 244.542,36.869 240.926 C 33.440 223.981,32.675 216.892,32.669 202.037 C 32.667 196.333,32.796 190.500,32.956 189.074 C 33.115 187.648,33.350 185.231,33.477 183.704 C 34.661 169.508,40.013 148.630,45.821 135.556 C 63.561 95.618,90.737 66.965,128.512 48.369 C 134.535 45.405,136.605 44.469,141.296 42.593 C 141.806 42.389,142.597 42.063,143.056 41.869 C 151.062 38.473,171.337 33.372,180.741 32.388 C 182.065 32.249,183.398 32.092,183.704 32.037 C 184.290 31.933,194.566 31.157,197.407 31.001 C 200.785 30.817,212.555 31.103,217.407 31.488 M194.784 76.815 C 194.699 76.897,193.546 77.076,192.222 77.213 C 165.025 80.035,139.277 99.809,133.859 122.037 C 133.710 122.648,133.528 123.315,133.454 123.519 C 133.081 124.555,131.890 131.874,131.872 133.241 C 131.848 135.083,131.963 135.114,134.181 133.875 C 138.023 131.727,145.155 129.024,148.889 128.299 C 149.398 128.200,150.105 128.031,150.460 127.924 C 150.815 127.817,151.565 127.657,152.126 127.569 C 152.688 127.480,153.731 127.307,154.444 127.185 C 155.157 127.063,156.324 126.900,157.037 126.823 C 157.750 126.746,159.250 126.577,160.370 126.447 C 163.505 126.085,176.125 126.210,181.199 126.655 C 188.239 127.271,191.478 129.205,192.634 133.482 C 193.295 135.925,192.834 158.085,192.063 160.926 C 191.732 162.148,191.366 163.648,191.250 164.259 C 190.866 166.291,190.053 167.770,186.605 172.702 C 176.547 187.088,162.276 205.189,157.161 210.046 C 154.149 212.906,149.726 214.966,144.584 215.903 C 143.387 216.121,141.991 216.395,141.481 216.513 C 140.972 216.630,138.580 216.797,136.165 216.883 C 131.012 217.069,131.018 217.066,131.327 218.825 C 132.554 225.835,144.239 247.260,149.895 252.870 C 153.863 256.807,154.909 255.859,155.923 247.407 C 157.677 232.783,160.374 226.222,167.900 218.271 C 174.531 211.266,184.405 205.496,191.852 204.274 C 192.565 204.157,193.565 203.978,194.074 203.876 C 194.583 203.774,195.382 203.619,195.849 203.531 C 212.785 200.325,232.925 209.498,242.711 224.875 C 246.516 230.854,248.040 235.907,249.786 248.333 C 250.480 253.273,250.591 253.682,251.509 254.659 L 252.297 255.498 249.707 259.138 C 244.546 266.392,239.185 276.318,235.941 284.630 C 235.066 286.870,234.207 288.990,234.032 289.339 C 233.856 289.689,233.548 290.606,233.346 291.376 C 233.145 292.147,232.652 293.944,232.252 295.370 C 231.852 296.796,231.515 298.830,231.503 299.889 L 231.481 301.815 236.944 305.379 C 263.289 322.567,262.009 321.843,263.468 320.384 C 264.154 319.698,264.541 319.977,264.347 321.019 C 264.045 322.633,264.444 323.169,267.583 325.353 C 271.137 327.826,271.205 327.830,273.941 325.783 C 281.069 320.446,294.674 303.635,301.401 291.852 C 301.808 291.139,303.018 289.056,304.090 287.222 C 309.215 278.457,315.140 264.282,314.732 261.760 C 314.636 261.170,314.397 261.575,313.913 263.148 C 309.958 276.002,300.615 292.953,289.313 307.778 C 282.873 316.226,272.934 326.285,271.019 326.295 C 269.003 326.305,277.303 306.255,283.821 295.370 C 292.850 280.292,306.359 264.077,313.056 260.281 C 314.864 259.255,314.935 259.383,311.289 257.096 L 308.135 255.117 306.672 255.880 L 305.209 256.643 305.407 255.451 C 305.631 254.104,304.898 254.905,304.629 256.301 C 304.552 256.702,302.510 258.990,300.092 261.385 C 288.831 272.541,279.060 286.456,271.285 302.407 C 268.562 307.992,264.815 316.880,264.815 317.751 C 264.815 318.164,262.308 320.370,261.839 320.370 C 259.477 320.370,268.260 299.334,274.828 289.259 C 275.027 288.954,275.302 288.454,275.439 288.148 C 278.706 280.867,296.748 258.945,302.873 254.815 C 303.931 254.102,304.800 253.412,304.805 253.282 C 304.831 252.636,275.418 234.028,274.674 234.220 C 273.406 234.545,269.913 237.007,266.276 240.138 L 262.889 243.053 263.913 241.249 C 268.745 232.733,271.290 227.440,273.122 222.098 C 274.699 217.498,274.829 217.637,268.704 217.349 C 254.445 216.681,250.008 213.994,237.876 198.688 C 229.309 187.880,228.354 186.641,225.890 183.148 C 224.597 181.315,223.440 179.731,223.320 179.630 C 223.200 179.528,222.127 178.028,220.936 176.296 C 217.735 171.642,217.243 170.945,217.017 170.741 C 215.617 169.474,213.877 164.741,213.137 160.185 C 212.158 154.160,212.364 133.941,213.426 131.843 C 214.971 128.790,217.910 127.199,222.675 126.837 C 223.954 126.740,225.709 126.569,226.576 126.456 C 233.002 125.618,247.040 126.353,255.147 127.952 C 259.422 128.794,266.918 131.500,270.700 133.566 C 273.702 135.205,273.761 135.119,273.162 129.986 C 270.011 102.966,246.032 81.693,213.719 77.250 C 209.910 76.727,195.226 76.389,194.784 76.815 M163.519 129.879 C 149.263 130.774,133.871 137.194,129.042 144.259 C 126.616 147.809,126.667 147.245,126.667 170.564 L 126.667 191.769 127.595 194.971 C 131.159 207.272,136.157 211.734,145.308 210.788 C 155.924 209.690,161.496 204.038,186.611 168.889 C 189.615 164.684,190.516 159.632,190.539 146.852 C 190.558 135.931,190.410 135.104,188.041 132.866 C 185.297 130.274,175.753 129.112,163.519 129.879 M227.778 130.028 C 220.781 130.619,218.221 131.775,216.688 135.038 C 215.788 136.953,215.719 157.900,216.603 160.741 C 216.825 161.454,217.102 162.593,217.218 163.273 C 217.674 165.942,221.312 171.533,231.234 184.815 C 246.417 205.140,251.799 209.791,261.296 210.794 C 270.095 211.724,274.380 208.158,278.269 196.667 C 280.203 190.952,280.371 188.841,280.368 170.251 C 280.364 146.293,279.821 144.345,271.691 139.066 C 260.049 131.507,245.570 128.527,227.778 130.028 M173.148 136.073 C 181.297 136.336,184.636 137.731,185.326 141.161 C 185.681 142.928,185.568 158.844,185.188 160.587 C 185.014 161.385,184.780 162.639,184.668 163.375 C 184.228 166.270,182.970 168.282,174.625 179.444 C 159.587 199.560,155.183 203.606,147.355 204.501 C 140.166 205.324,137.362 203.597,133.920 196.228 C 131.077 190.143,131.066 190.031,131.188 169.444 L 131.296 151.296 132.351 149.393 C 134.235 145.994,135.997 144.557,142.222 141.342 C 144.864 139.977,151.409 137.381,152.046 137.445 C 152.150 137.455,152.690 137.365,153.247 137.244 C 155.200 136.821,156.125 136.659,157.778 136.453 C 160.479 136.116,166.051 135.722,166.852 135.811 C 167.259 135.856,170.093 135.974,173.148 136.073 M248.148 136.507 C 262.106 138.839,272.355 144.676,274.480 151.505 C 275.263 154.021,275.556 185.532,274.826 188.704 C 274.638 189.519,274.386 190.750,274.265 191.441 C 274.054 192.646,273.580 193.821,271.608 198.034 C 269.280 203.006,266.505 204.815,261.207 204.815 C 253.822 204.815,249.207 202.065,242.248 193.519 C 238.107 188.433,237.103 187.148,233.277 182.037 C 231.448 179.593,229.637 177.176,229.254 176.667 C 228.871 176.157,227.558 174.324,226.336 172.593 C 225.115 170.861,223.955 169.260,223.759 169.034 C 221.471 166.401,220.741 161.973,220.741 150.738 C 220.741 137.818,221.145 137.225,230.577 136.325 C 234.240 135.975,245.675 136.094,248.148 136.507 M161.296 137.824 C 156.671 138.221,153.138 138.931,149.074 140.280 C 148.056 140.619,147.139 140.914,147.037 140.936 C 144.602 141.474,136.870 146.391,135.255 148.430 C 132.371 152.072,132.420 151.730,132.296 168.867 C 132.158 187.771,132.617 190.726,136.673 197.048 C 138.026 199.155,138.870 199.177,137.798 197.077 C 135.699 192.963,135.518 190.937,135.634 172.846 L 135.741 156.111 136.734 154.259 C 140.986 146.328,153.623 141.681,170.926 141.686 C 179.263 141.688,180.945 141.842,183.542 142.838 C 185.484 143.583,182.496 139.490,180.483 138.650 C 178.132 137.667,168.134 137.237,161.296 137.824 M231.296 137.759 C 226.369 138.150,224.706 138.695,223.135 140.434 C 221.543 142.195,221.573 144.192,223.167 142.615 C 224.276 141.517,237.885 141.134,244.720 142.008 C 254.440 143.251,264.843 147.860,268.070 152.353 C 270.390 155.584,270.418 155.865,270.292 174.461 L 270.178 191.296 269.123 194.444 C 268.543 196.176,267.896 197.805,267.685 198.065 C 267.242 198.611,267.545 199.077,268.114 198.725 C 268.874 198.255,271.088 193.827,272.293 190.370 L 273.519 186.852 273.519 170.185 L 273.519 153.519 272.555 151.465 C 268.169 142.114,250.481 136.238,231.296 137.759 M197.222 205.804 C 167.413 210.648,152.693 243.606,169.048 268.888 C 170.541 271.195,176.000 277.085,177.979 278.524 C 183.528 282.556,187.897 284.594,194.630 286.288 C 198.769 287.330,207.964 287.085,213.302 285.791 C 225.864 282.746,237.057 272.275,241.520 259.392 C 249.217 237.180,236.049 212.836,213.066 206.787 C 209.486 205.845,200.430 205.283,197.222 205.804 M205.121 222.032 C 206.174 223.015,206.102 225.364,204.991 226.237 C 202.277 228.372,199.007 225.918,200.424 222.808 C 201.136 221.246,203.806 220.805,205.121 222.032 M231.057 226.993 C 232.963 229.681,235.567 235.684,236.136 238.704 C 236.290 239.519,236.487 240.435,236.574 240.741 C 237.155 242.768,236.772 251.487,235.963 254.630 C 231.762 270.966,215.261 282.224,198.739 280.026 C 173.423 276.657,160.610 248.351,174.879 227.315 C 176.232 225.321,177.389 224.197,176.214 226.019 C 175.919 226.477,175.411 227.269,175.087 227.778 C 171.576 233.288,170.110 244.733,172.122 250.926 C 172.254 251.333,172.402 251.893,172.450 252.169 C 174.297 262.683,187.540 273.645,199.630 274.667 C 200.954 274.779,202.208 274.922,202.418 274.985 C 203.490 275.306,209.833 274.343,212.599 273.439 C 228.418 268.266,237.755 251.751,233.913 235.741 C 233.114 232.415,230.676 226.957,229.281 225.370 C 228.922 224.963,228.501 224.380,228.345 224.074 C 227.947 223.294,230.004 225.509,231.057 226.993 M205.192 231.759 C 206.811 233.817,205.538 236.465,202.931 236.465 C 200.255 236.465,199.024 233.534,200.909 231.650 C 202.203 230.356,204.127 230.405,205.192 231.759 M186.161 241.166 C 187.811 242.989,186.496 245.926,184.031 245.926 C 180.629 245.926,179.888 241.308,183.149 240.425 C 184.537 240.050,185.326 240.244,186.161 241.166 M224.270 241.120 C 225.086 241.797,224.966 244.293,224.074 245.185 C 222.246 247.014,219.111 245.685,219.111 243.082 C 219.111 240.501,222.138 239.350,224.270 241.120 M195.619 240.983 C 197.377 242.574,195.980 245.926,193.560 245.926 C 190.973 245.926,189.623 242.960,191.344 241.058 C 192.143 240.176,194.678 240.132,195.619 240.983 M214.647 241.130 C 215.101 241.632,215.306 242.354,215.252 243.260 C 215.032 246.945,209.630 246.838,209.630 243.148 C 209.630 240.618,212.968 239.275,214.647 241.130 M205.151 250.548 C 206.071 251.468,205.897 254.013,204.858 254.854 C 201.908 257.243,198.268 253.180,200.953 250.495 C 202.021 249.427,204.056 249.453,205.151 250.548 M136.355 255.681 C 131.771 260.279,131.733 260.367,133.072 263.368 C 136.540 271.146,156.574 289.538,160.292 288.358 C 161.918 287.842,169.298 279.762,169.107 278.708 C 167.901 272.060,147.096 251.481,141.580 251.481 C 140.752 251.481,139.701 252.326,136.355 255.681 M205.017 260.168 C 207.343 262.495,204.497 266.189,201.551 264.666 C 198.950 263.321,199.905 259.259,202.821 259.259 C 203.693 259.259,204.401 259.552,205.017 260.168 M136.037 260.979 C 144.640 265.400,160.700 282.523,160.737 287.315 C 160.757 289.888,149.358 281.790,142.529 274.380 C 133.883 264.997,130.578 258.174,136.037 260.979 M195.741 293.210 C 185.507 294.059,180.099 295.425,179.066 297.423 C 178.436 298.642,178.266 310.029,178.855 311.578 C 180.948 317.083,219.519 318.064,226.146 312.780 L 227.222 311.922 227.222 304.632 C 227.222 296.158,227.393 296.543,223.051 295.231 C 217.101 293.432,204.397 292.493,195.741 293.210 M214.259 307.910 C 214.667 307.998,216.083 308.189,217.407 308.336 C 220.806 308.711,225.708 310.379,225.862 311.212 C 226.793 316.246,184.186 316.710,180.037 311.712 C 178.845 310.275,185.516 308.361,193.333 307.896 C 195.269 307.781,196.935 307.603,197.037 307.500 C 197.248 307.288,213.126 307.666,214.259 307.910 " stroke="none" fill="#fc5c24" fill-rule="evenodd"></path><path id="path1" d="M275.713 37.733 C 275.824 37.912,276.292 38.154,276.753 38.270 C 277.563 38.474,277.567 38.463,276.874 37.945 C 276.077 37.350,275.400 37.226,275.713 37.733 M302.832 52.590 C 303.270 52.767,303.738 53.089,303.873 53.307 C 304.008 53.525,304.316 53.700,304.559 53.695 C 304.802 53.691,304.583 53.361,304.074 52.963 C 303.565 52.565,302.898 52.246,302.593 52.254 C 302.267 52.263,302.366 52.402,302.832 52.590 M329.857 74.547 C 329.984 74.909,330.443 75.388,330.877 75.611 C 331.553 75.958,331.589 75.943,331.128 75.508 C 330.832 75.229,330.373 74.750,330.109 74.444 C 329.690 73.961,329.657 73.974,329.857 74.547 M337.778 82.812 C 337.778 83.210,339.543 85.185,339.899 85.185 C 340.031 85.185,339.649 84.644,339.051 83.983 C 338.452 83.322,337.921 82.711,337.870 82.625 C 337.819 82.539,337.778 82.624,337.778 82.812 M354.444 104.815 C 354.880 105.426,355.319 105.926,355.421 105.926 C 355.523 105.926,355.250 105.426,354.815 104.815 C 354.380 104.204,353.940 103.704,353.838 103.704 C 353.737 103.704,354.009 104.204,354.444 104.815 M217.315 127.990 C 215.879 128.769,216.041 129.038,217.500 128.296 C 218.896 127.586,219.143 127.402,218.673 127.422 C 218.486 127.430,217.875 127.686,217.315 127.990 M46.049 135.027 C 45.816 135.521,45.765 135.926,45.936 135.926 C 46.258 135.926,46.834 134.488,46.604 134.258 C 46.532 134.187,46.283 134.533,46.049 135.027 M40.068 151.295 C 39.836 151.805,39.789 152.222,39.965 152.222 C 40.272 152.222,40.826 150.703,40.601 150.478 C 40.540 150.417,40.301 150.785,40.068 151.295 M218.035 166.477 C 218.374 167.187,218.717 167.703,218.797 167.622 C 218.967 167.453,217.843 165.185,217.589 165.185 C 217.496 165.185,217.697 165.766,218.035 166.477 M134.821 194.259 C 134.818 194.669,136.637 197.736,136.655 197.353 C 136.661 197.221,136.252 196.387,135.745 195.501 C 135.238 194.614,134.823 194.056,134.821 194.259 M245.185 202.708 C 245.185 202.772,245.727 203.314,246.389 203.912 L 247.593 205.000 246.505 203.796 C 245.491 202.674,245.185 202.422,245.185 202.708 M156.481 206.296 C 155.870 206.701,155.537 207.030,155.741 207.026 C 156.112 207.021,158.126 205.577,157.778 205.566 C 157.676 205.563,157.093 205.892,156.481 206.296 M244.754 229.038 C 245.297 230.140,245.796 230.989,245.864 230.923 C 246.066 230.726,244.562 227.524,244.148 227.268 C 243.938 227.138,244.211 227.935,244.754 229.038 M138.689 236.611 C 139.234 237.701,139.760 238.512,139.858 238.414 C 140.052 238.220,138.683 235.602,138.073 235.000 C 137.867 234.796,138.144 235.521,138.689 236.611 M156.852 262.593 C 158.267 264.019,159.508 265.185,159.610 265.185 C 159.712 265.185,158.637 264.019,157.222 262.593 C 155.807 261.167,154.566 260.000,154.464 260.000 C 154.362 260.000,155.437 261.167,156.852 262.593 M148.697 271.398 C 150.730 273.481,152.451 275.185,152.521 275.185 C 152.831 275.185,150.689 272.927,147.963 270.380 C 145.312 267.903,145.389 268.010,148.697 271.398 M138.148 271.227 C 138.148 271.291,138.690 271.832,139.352 272.431 L 140.556 273.519 139.468 272.315 C 138.454 271.193,138.148 270.941,138.148 271.227 M142.222 274.190 C 142.222 274.254,142.764 274.795,143.426 275.394 L 144.630 276.481 143.542 275.278 C 142.528 274.156,142.222 273.904,142.222 274.190 M143.519 277.037 C 144.728 278.259,145.801 279.259,145.903 279.259 C 146.005 279.259,145.098 278.259,143.889 277.037 C 142.679 275.815,141.607 274.815,141.505 274.815 C 141.403 274.815,142.309 275.815,143.519 277.037 M306.928 279.455 C 306.381 280.569,306.013 281.481,306.109 281.481 C 306.358 281.481,308.226 277.733,308.060 277.566 C 307.984 277.490,307.475 278.340,306.928 279.455 M221.111 282.778 C 220.602 283.069,220.352 283.307,220.556 283.307 C 220.759 283.307,221.343 283.069,221.852 282.778 C 222.361 282.487,222.611 282.248,222.407 282.248 C 222.204 282.248,221.620 282.487,221.111 282.778 M65.421 302.778 C 66.278 304.240,66.296 304.262,66.296 303.806 C 66.296 303.591,65.953 303.022,65.534 302.541 L 64.771 301.667 65.421 302.778 M319.051 339.352 L 317.963 340.556 319.167 339.468 C 319.829 338.869,320.370 338.328,320.370 338.264 C 320.370 337.978,320.065 338.230,319.051 339.352 " stroke="none" fill="#fc6424" fill-rule="evenodd"></path><path id="path2" d="" stroke="none" fill="#1005c24" fill-rule="evenodd"></path><path id="path3" d="" stroke="none" fill="#1005c24" fill-rule="evenodd"></path><path id="path4" d="" stroke="none" fill="#1005c24" fill-rule="evenodd"></path></g></svg>