<svg xmlns="http://www.w3.org/2000/svg" width="800" height="800" version="1" viewBox="0 0 600 600"><path d="M358.1 77.7c-1.9 1.5-4.5 3.7-5.9 5-1.3 1.2-5.6 3.4-9.5 4.8-20.8 7.7-38.4 18.3-50.6 30.4-7.3 7.3-16.1 18.9-16.1 21.3 0 .6-.6 1.9-1.4 2.7-1.8 2.1-5.4 13.3-6.2 19.4-.4 2.6-1 4.9-1.3 5.2-.4.2-6.9.5-14.6.6-15.1.2-22.6 1.5-27.1 4.5-1.6 1-4.5 2.6-6.4 3.5-1.9.9-4.8 2.2-6.5 3-11.6 5.3-36.4 27-53.9 47.2-4.9 5.6-5.6 6.9-4.6 8.2.7.8 5.5 4.7 10.7 8.7l9.4 7.1 1.7-2.4c4.1-5.9 19.1-20.8 36.2-35.9 11.6-10.3 12.4-11.3 11.7-14.1-.3-1-.1-2 .4-2 .5-.1 1.2-.2 1.7-.3.4-.1 2.4-.5 4.4-.9 2.3-.5 3.9-1.5 4.3-2.7.4-1.2 1.8-2.1 3.8-2.4 5.9-1 10.8-1.6 17.4-2.2l6.6-.6-.6 5.7c-.5 4.5-1.1 6.1-2.9 7.3-1.3.8-5.3 4.6-9 8.3-15.3 15.6-21.1 38.2-16.3 62.8.6 3-2.7 8.8-8.5 15.1-4.5 4.9-6.5 8-5.3 8 .4 0 2.1 1.1 3.7 2.5 2.5 2.1 2.8 3 2.4 7l-.3 4.5 5.7 2.3c3.2 1.2 5.8 2.5 5.8 2.8 0 .4-3.3 4.4-7.3 9-8.1 9.3-17.7 18.2-24 22.6-2.3 1.5-7.1 5-10.7 7.8-3.6 2.7-6.9 5.3-7.5 5.7-1.4 1-16.8 14-18 15.3-3 3.1-6.5 7.8-6.5 8.8 0 .8.3.8.8.2.4-.6 4.3-3.9 8.7-7.5 4.4-3.5 8.2-6.7 8.5-7.1 1.3-1.5 14.9-10.9 18.8-12.8 2.4-1.2 5.6-3.3 7-4.5 3.6-3.2 11-9.3 16.2-13.6 2.3-1.9 5.6-4.7 7.4-6.2 4.2-3.7 4.9-3.5 3.1.8-3.7 8.8-17.6 21.5-40.6 37-6.3 4.2-10.5 7.3-9.4 6.9 1.1-.4 2.5-.8 3.2-.9.7-.1 1.6-.5 1.9-.9.4-.4 1.3-.7 2-.7 2.1 0 15.7-6.7 20.3-10 2.3-1.7 4.4-3 4.6-2.8.7.7-7.7 12-13.2 17.9-14 14.8-38.3 28.6-55.4 31.3-9.8 1.5-36.3 10.3-46.1 15.2-4.7 2.4-6.6 2.7-17.3 2.9-6.6.2-13.6.6-15.5.9-18.9 3.5-31.6 13.7-32.7 26.6-.5 5.6-.8 6.1-4.6 8.6-2.2 1.4-5.4 3.9-7.1 5.4-1.7 1.6-4.5 4.1-6.2 5.7C12.6 478 5.3 487.5 2.5 493 .2 497.5 0 499 0 511.5V525h541.1l-2.1-3.1c-6.8-9.5-26.7-20.6-52.4-29.3-6-2-11.6-4.5-12.3-5.4-.8-.9-2.8-4.4-4.4-7.8-2.9-6.1-3-9.4-.3-9.4 2.8 0 19.5 6 28.1 10l8.7 4.1-8.8-8.6c-10.6-10.3-14.6-13.6-25.1-20.7-8.2-5.5-15.5-11.5-15.5-12.8 0-1.8 4.6-1.6 10.8.5 8.4 2.9 11.8 3.5 20.3 4 8.6.5 10.2-.6 5.2-3.5-13.7-8.4-32.9-25.3-36.7-32.5l-2-3.6 5-4.2c15.1-12.6 31-36.5 39.5-59.1 3.9-10.7 3.2-21.4-2-27.1-1-1.1-3.4-5.4-5.3-9.5-2-4.1-4.9-8.8-6.7-10.4-1.7-1.7-3.1-3.5-3.1-4.2 0-.6-1-1.5-2.2-1.8-2.3-.6-2.2-.7 1-3.6 4.6-4.2 9.5-12.4 15.3-25.2 5.6-12.2 6.9-17.9 7.1-29.5.3-21-6.7-44.8-21.7-73.2-3.6-6.9-25.1-29.6-36-38.1-2.2-1.7-4.9-3.8-6-4.7-5.4-4.6-21.8-14.7-29.7-18.5-8.7-4.2-8.9-4.4-12.1-10.8l-3.2-6.4-7.5-2.4-7.5-2.3-1.8 2.2-1.8 2.2-4.9-2.6c-6.2-3.4-8.6-3.4-12.9 0zM84.3 437.6c4 .7 6.1 2.4 3 2.4-5.9 0-28.3 7.2-39.6 12.8-5.4 2.6-9.7 4.6-9.7 4.4 0-1 2.7-5.2 5.7-9 4-4.9 9.8-8.9 15.8-10.9 4-1.3 16.7-1.1 24.8.3z"/></svg>